<?xml version="1.0" encoding="UTF-8"?>
<svg width="592px" height="310px" viewBox="0 0 592 310" version="1.1" xmlns="http://www.w3.org/2000/svg" xmlns:xlink="http://www.w3.org/1999/xlink">
    <!-- Generator: Sketch 54 (76480) - https://sketchapp.com -->
    <title>Stacked Slogan</title>
    <desc>Created with Sketch.</desc>
    <g id="Page-1" stroke="none" stroke-width="1" fill="none" fill-rule="evenodd">
        <g id="4.-Logo" transform="translate(-468.000000, -316.000000)">
            <g id="Stacked-Slogan" transform="translate(460.000000, 319.000000)">
                <g id="Concept-1">
                    <text id="PrimeEnvy" font-family="Avenir-Black, Avenir" font-size="120" font-weight="700">
                        <tspan x="0" y="230" fill="#2D3436">prime</tspan>
                        <tspan x="328.92" y="230" fill="#55EFC4">envy</tspan>
                    </text>
                    <g id="Snek-Mix" transform="translate(254.000000, 0.000000)">
                        <g id="Snek-Light-Greenish-Blue" transform="translate(1.000000, 10.000000)">
                            <path d="M40.2642089,80.4184247 C62.9452126,59.1415351 74.2857143,42.3438537 74.2857143,30.0253807 C74.2857143,19.0670004 68.4505034,9.25097261 60.3534383,3.07660772 C54.7974628,-1.16006601 48.531431,1.64917183 42,1.64917183 C36.2396213,1.64917183 30.2807164,-1.14847796 25.2902987,2.22108379 C16.3759647,8.24009885 9.71428571,18.1793241 9.71428571,30.0253807 C9.71428571,42.3438537 19.8975934,59.1415351 40.2642089,80.4184247 Z" id="Hat" stroke="#55EFC4" stroke-width="6" fill="#FFFFFF" fill-rule="nonzero"></path>
                            <rect id="Lower-Body" stroke="#55EFC4" stroke-width="6" fill="#FFFFFF" fill-rule="nonzero" x="0" y="85.786802" width="80" height="26.8798646" rx="13.4399323"></rect>
                            <rect id="Inner-body-cover" fill="#FFFFFF" fill-rule="nonzero" x="30.2857143" y="44.5600677" width="22.2857143" height="44.6091371"></rect>
                            <g id="Tongue" stroke-linecap="round" stroke-linejoin="round" transform="translate(38.349182, 31.289389)" stroke="#D63031" stroke-width="5">
                                <path d="M2.78730634,0 C2.21163228,3.68513596 2.21163228,6.17972446 2.78730634,7.48376552" id="Path"></path>
                                <path d="M3.93101613,7.43503754 C3.35440418,10.2751239 3.35381962,12.1975523 3.92926246,13.2023226" id="Path" transform="translate(3.714567, 10.318680) rotate(-23.000000) translate(-3.714567, -10.318680) "></path>
                                <path d="M1.64473884,7.43503754 C1.06812689,10.2751239 1.06754233,12.1975523 1.64298517,13.2023226" id="Path" transform="translate(1.428290, 10.318680) scale(-1, 1) rotate(-23.000000) translate(-1.428290, -10.318680) "></path>
                            </g>
                            <path d="M17.3363283,98.2776921 L29.9077569,98.2776921" id="Line" stroke="#55EFC4" stroke-width="6" stroke-linecap="round"></path>
                            <path d="M64.902344,100.447633 C56.6115691,100.617791 52.4661817,98.0419528 52.4661817,92.7201183 C52.4661817,87.3982831 52.4661817,63.4535636 52.4661817,20.8859586 L30.2105479,20.8859586 L30.2105631,102.077358 C30.7031117,109.08961 33.9662573,112.595736 40,112.595736" id="Body" stroke="#55EFC4" stroke-width="6" stroke-linecap="round"></path>
                            <path d="M31.0739056,1.14382403 C30.7550729,1.14382403 30.4367995,1.17053077 30.1224178,1.22366463 C27.0105624,1.74960141 24.9139008,4.70074885 25.439393,7.81523692 L28.5614269,26.3189129 C28.6097929,26.6055684 28.6799268,26.8881159 28.7712189,27.1640983 C29.7630994,30.1626226 32.9959071,31.7886489 35.9918971,30.7959302 C38.4511722,29.9810507 40.1038957,29.5736531 41.1364889,29.5736531 C42.1673221,29.5736531 43.8118421,29.9793494 46.2552201,30.7905292 C46.5296162,30.8816263 46.810524,30.951751 47.0955238,31.0002992 C50.2066952,31.5302714 53.1580621,29.4356622 53.6875862,26.3218586 L56.8335251,7.82254372 C56.8874366,7.50552557 56.914536,7.18452131 56.914536,6.86294416 C56.914536,3.70436133 54.3561634,1.14382403 51.2002505,1.14382403 L31.0739056,1.14382403 Z" id="Head" stroke="#55EFC4" stroke-width="6" fill="#FFFFFF" fill-rule="nonzero"></path>
                            <g id="Eyes" stroke-linecap="round" transform="translate(32.285714, 14.844847)" stroke="#D63031" stroke-width="6">
                                <path d="M0.571607559,0.572089692 L2.53083978,3.39357363" id="Line-2" transform="translate(1.551224, 1.982832) rotate(-10.000000) translate(-1.551224, -1.982832) "></path>
                                <path d="M14.2858928,0.57208969 L16.245125,3.39357362" id="Line-2" transform="translate(15.265509, 1.982832) scale(-1, 1) rotate(-10.000000) translate(-15.265509, -1.982832) "></path>
                            </g>
                        </g>
                        <g id="Snek-Black">
                            <path d="M46.4980078,92.79049 C72.6905374,68.2402328 85.786802,48.8582928 85.786802,34.6446701 C85.786802,22.000385 79.0481702,10.6741992 69.6974985,3.54993199 C63.2813339,-1.33853771 56.0451805,1.90289057 48.5025381,1.90289057 C41.850324,1.90289057 34.9688476,-1.32516688 29.2058018,2.56278898 C18.9113298,9.50780637 11.2182741,20.9761432 11.2182741,34.6446701 C11.2182741,48.8582928 22.9781853,68.2402328 46.4980078,92.79049 Z" id="Hat" stroke="#2D3436" stroke-width="6" fill="#FFFFFF" fill-rule="nonzero"></path>
                            <rect id="Lower-Body" stroke="#2D3436" stroke-width="6" fill="#FFFFFF" fill-rule="nonzero" x="0" y="98.9847716" width="92.3857868" height="31.0152284" rx="15.5076142"></rect>
                            <rect id="Inner-body-cover" fill="#FFFFFF" fill-rule="nonzero" x="34.9746193" y="51.4923858" width="25.7360406" height="51.4720812"></rect>
                            <g id="Tongue" stroke-linecap="round" stroke-linejoin="round" transform="translate(44.286492, 36.103141)" stroke="#D63031" stroke-width="5">
                                <path d="M3.21884362,0 C2.55404235,4.25207996 2.55404235,7.1304513 3.21884362,8.63511406" id="Path"></path>
                                <path d="M4.5386407,8.57868018 C3.87383944,11.8559238 3.87383944,14.0743967 4.5386407,15.2340988" id="Path" transform="translate(4.289340, 11.906389) rotate(-23.000000) translate(-4.289340, -11.906389) "></path>
                                <path d="M1.89904654,8.57868018 C1.23424528,11.8559238 1.23424528,14.0743967 1.89904654,15.2340988" id="Path" transform="translate(1.649746, 11.906389) scale(-1, 1) rotate(-23.000000) translate(-1.649746, -11.906389) "></path>
                            </g>
                            <path d="M20.0203792,113.397337 L34.5381457,113.397337" id="Line" stroke="#2D3436" stroke-width="6" stroke-linecap="round"></path>
                            <path d="M74.9506764,115.901115 C65.3763045,116.097452 60.5891184,113.12533 60.5891184,106.984752 C60.5891184,100.844173 60.5891184,73.2156503 60.5891184,24.099183 L34.8878155,24.099183 L34.8878331,117.781567 C35.4566392,125.872627 39.2249926,129.918157 46.1928934,129.918157" id="Body" stroke="#2D3436" stroke-width="6" stroke-linecap="round"></path>
                            <path d="M35.8848402,1.31979695 C35.5166451,1.31979695 35.1490959,1.35061243 34.7860408,1.41192073 C31.1924007,2.01877086 28.7711291,5.42394098 29.3779792,9.01758106 L32.9833737,30.3679764 C33.0392278,30.6987328 33.12022,31.0247491 33.2256462,31.3431904 C34.371092,34.8030261 38.1044105,36.6792102 41.5642466,35.5337657 C44.4042724,34.59352 46.3128744,34.1234459 47.5053362,34.1234459 C48.6957654,34.1234459 50.5948937,34.591557 53.4165613,35.5275337 C53.7334401,35.6326457 54.0578386,35.7135588 54.3869628,35.769576 C57.979813,36.3810824 61.3881174,33.9642256 61.9996237,30.3713753 L65.6326242,9.02601198 C65.6948823,8.66022181 65.7261774,8.28983228 65.7261774,7.91878173 C65.7261774,4.27426307 62.7717115,1.31979695 59.1271929,1.31979695 L35.8848402,1.31979695 Z" id="Head" stroke="#2D3436" stroke-width="6" fill="#FFFFFF" fill-rule="nonzero"></path>
                            <g id="Eyes" stroke-linecap="round" transform="translate(37.284264, 17.128669)" stroke="#D63031" stroke-width="6">
                                <path d="M0.659898507,0.659898431 L2.92287698,3.91586694" id="Line-2" transform="translate(1.791388, 2.287883) rotate(-10.000000) translate(-1.791388, -2.287883) "></path>
                                <path d="M16.4974614,0.659898428 L18.7604399,3.91586693" id="Line-2" transform="translate(17.628951, 2.287883) scale(-1, 1) rotate(-10.000000) translate(-17.628951, -2.287883) "></path>
                            </g>
                        </g>
                    </g>
                </g>
                <text id="Digital-Happiness" font-family="Avenir-Light, Avenir" font-size="40" font-weight="300" fill="#C2C2C2">
                    <tspan x="143" y="297">Digital Happiness</tspan>
                </text>
            </g>
        </g>
    </g>
</svg>